<?xml version="1.0" encoding="UTF-8" standalone="no"?>
<svg
   xmlns:dc="http://purl.org/dc/elements/1.1/"
   xmlns:cc="http://creativecommons.org/ns#"
   xmlns:rdf="http://www.w3.org/1999/02/22-rdf-syntax-ns#"
   xmlns:svg="http://www.w3.org/2000/svg"
   xmlns="http://www.w3.org/2000/svg"
   xmlns:sodipodi="http://sodipodi.sourceforge.net/DTD/sodipodi-0.dtd"
   xmlns:inkscape="http://www.inkscape.org/namespaces/inkscape"
   viewBox="0 0 24 24"
   version="1.1"
   id="svg1191"
   sodipodi:docname="humidity.svg"
   inkscape:version="0.92.5 (2060ec1f9f, 2020-04-08)">
  <metadata
     id="metadata1197">
    <rdf:RDF>
      <cc:Work
         rdf:about="">
        <dc:format>image/svg+xml</dc:format>
        <dc:type
           rdf:resource="http://purl.org/dc/dcmitype/StillImage" />
      </cc:Work>
    </rdf:RDF>
  </metadata>
  <defs
     id="defs1195" />
  <sodipodi:namedview
     pagecolor="#ffffff"
     bordercolor="#666666"
     borderopacity="1"
     objecttolerance="10"
     gridtolerance="10"
     guidetolerance="10"
     inkscape:pageopacity="0"
     inkscape:pageshadow="2"
     inkscape:window-width="775"
     inkscape:window-height="799"
     id="namedview1193"
     showgrid="false"
     inkscape:zoom="9.8333333"
     inkscape:cx="12"
     inkscape:cy="12"
     inkscape:window-x="72"
     inkscape:window-y="27"
     inkscape:window-maximized="0"
     inkscape:current-layer="svg1191" />
  <path
     d="M12,22c2.579,0,4-1.35,4-3.8,0-3.243-3.237-5.871-3.375-5.981a1,1,0,0,0-1.25,0C11.237,12.329,8,14.957,8,18.2,8,20.65,9.421,22,12,22Zm0-7.639A6.153,6.153,0,0,1,14,18.2c0,1.112-.335,1.8-2,1.8s-2-.688-2-1.8A6.153,6.153,0,0,1,12,14.361ZM6.625,2.219a1,1,0,0,0-1.25,0C5.237,2.329,2,4.957,2,8.2,2,10.65,3.421,12,6,12s4-1.35,4-3.8C10,4.957,6.763,2.329,6.625,2.219ZM6,10c-1.665,0-2-.688-2-1.8A6.153,6.153,0,0,1,6,4.361,6.153,6.153,0,0,1,8,8.2C8,9.312,7.665,10,6,10ZM18.625,2.219a1,1,0,0,0-1.25,0C17.237,2.329,14,4.957,14,8.2c0,2.45,1.421,3.8,4,3.8s4-1.35,4-3.8C22,4.957,18.763,2.329,18.625,2.219ZM18,10c-1.665,0-2-.688-2-1.8a6.153,6.153,0,0,1,2-3.839A6.153,6.153,0,0,1,20,8.2C20,9.312,19.665,10,18,10Z"
     id="path1189" />
  <path
     style="fill:#000000;fill-opacity:0;stroke-width:0.10169491"
     d="M 4.6724667,11.808237 C 3.6201137,11.560216 2.6318408,10.721959 2.3081732,9.8028336 2.0477176,9.0632125 1.9980302,7.8200956 2.1976343,7.0372881 2.544845,5.6755972 3.3097413,4.3836307 4.5280108,3.1011098 5.2884903,2.3005227 5.6481538,2.0542373 6.0568141,2.0542373 c 0.6016808,0 2.3417104,1.8773481 3.1064938,3.3516501 C 9.7069336,6.4538553 9.9185475,7.234514 9.9225484,8.2067797 9.9303419,10.10068 9.0682219,11.335107 7.4339669,11.770057 6.834023,11.92973 5.2791725,11.951227 4.6724667,11.808237 Z M 7.1981797,9.8363008 C 7.9320295,9.5312308 8.1835193,8.7323846 7.9171052,7.5526664 7.6996994,6.5899642 7.1519296,5.5428176 6.4985283,4.8408372 L 5.9549343,4.2568281 5.4252613,4.8932947 C 3.9464128,6.6703115 3.5126927,9.0459584 4.5437706,9.7215466 5.0972686,10.084212 6.4600988,10.14313 7.1981797,9.8363008 Z"
     id="path5445"
     inkscape:connector-curvature="0" />
  <path
     style="fill:#ffffff;fill-opacity:1;stroke-width:0.10169491"
     d="M 4.6724667,11.808237 C 3.6201137,11.560216 2.6318408,10.721959 2.3081732,9.8028336 2.0477176,9.0632125 1.9980302,7.8200956 2.1976343,7.0372881 2.544845,5.6755972 3.3097413,4.3836307 4.5280108,3.1011098 5.2884903,2.3005227 5.6481538,2.0542373 6.0568141,2.0542373 c 0.6016808,0 2.3417104,1.8773481 3.1064938,3.3516501 C 9.7069336,6.4538553 9.9185475,7.234514 9.9225484,8.2067797 9.9303419,10.10068 9.0682219,11.335107 7.4339669,11.770057 6.834023,11.92973 5.2791725,11.951227 4.6724667,11.808237 Z M 7.1981797,9.8363008 C 7.9320295,9.5312308 8.1835193,8.7323846 7.9171052,7.5526664 7.6996994,6.5899642 7.1519296,5.5428176 6.4985283,4.8408372 L 5.9549343,4.2568281 5.4252613,4.8932947 C 3.9464128,6.6703115 3.5126927,9.0459584 4.5437706,9.7215466 5.0972686,10.084212 6.4600988,10.14313 7.1981797,9.8363008 Z"
     id="path5447"
     inkscape:connector-curvature="0" />
  <path
     style="fill:#ffffff;fill-opacity:1;stroke-width:0.10169491"
     d="M 16.672467,11.808237 C 15.620114,11.560216 14.631841,10.721959 14.308173,9.8028336 14.047718,9.0632125 13.99803,7.8200956 14.197634,7.0372881 14.544845,5.6755972 15.309741,4.3836307 16.528011,3.1011098 17.28849,2.3005227 17.648154,2.0542373 18.056814,2.0542373 c 0.601681,0 2.341711,1.8773481 3.106494,3.3516501 0.543626,1.0479679 0.75524,1.8286266 0.75924,2.8008923 0.0078,1.8939003 -0.854326,3.1283273 -2.488581,3.5632773 -0.599944,0.159673 -2.154794,0.18117 -2.7615,0.03818 z M 19.19818,9.8363008 C 19.932029,9.5312308 20.183519,8.7323846 19.917105,7.5526664 19.699699,6.5899642 19.15193,5.5428176 18.498528,4.8408372 L 17.954934,4.2568281 17.425261,4.8932947 c -1.478848,1.7770168 -1.912568,4.1526637 -0.88149,4.8282519 0.553498,0.3626654 1.916328,0.4215834 2.654409,0.1147542 z"
     id="path5449"
     inkscape:connector-curvature="0" />
  <path
     style="fill:#ffffff;fill-opacity:1;stroke-width:0.10169491"
     d="M 11.007729,21.870659 C 9.1282084,21.559075 8.0591893,20.243841 8.0554443,18.238408 c -0.00317,-1.697156 0.9193078,-3.569092 2.5928897,-5.26162 1.241648,-1.255704 1.475429,-1.245111 2.807107,0.127201 2.158309,2.224166 2.964223,4.671998 2.209493,6.71097 -0.597502,1.614204 -2.433049,2.424418 -4.657205,2.0557 z m 2.262852,-2.067498 c 0.959438,-0.455378 1.004464,-1.87234 0.117171,-3.687327 -0.197629,-0.404258 -0.586028,-0.976292 -0.863107,-1.271187 l -0.503781,-0.536172 -0.551013,0.580278 c -1.147437,1.20838 -1.7807692,3.239998 -1.339362,4.296434 0.159505,0.381749 0.504525,0.648892 1.002567,0.776268 0.52096,0.133238 1.708597,0.04529 2.137525,-0.158294 z"
     id="path5451"
     inkscape:connector-curvature="0" />
</svg>
