<?xml version="1.0" encoding="utf-8"?>
<!-- Generator: Adobe Illustrator 23.0.4, SVG Export Plug-In . SVG Version: 6.00 Build 0)  -->
<svg version="1.1" id="Icons" xmlns="http://www.w3.org/2000/svg" xmlns:xlink="http://www.w3.org/1999/xlink" x="0px" y="0px"
	 viewBox="0 0 32 32" style="enable-background:new 0 0 32 32;" xml:space="preserve">
<style type="text/css">
	.st0{fill:none;stroke:#ffffff;stroke-width:2;stroke-linecap:round;stroke-linejoin:round;stroke-miterlimit:10;}
	.st1{fill:none;stroke:#000000;stroke-width:2;stroke-linejoin:round;stroke-miterlimit:10;}
</style>
<path class="st0" d="M15,17.81V6c0-1.66-1.34-3-3-3S9,4.34,9,6v11.81C7.21,18.85,6,20.78,6,23c0,3.31,2.69,6,6,6s6-2.69,6-6
	C18,20.78,16.79,18.85,15,17.81z"/>
<circle class="st0" cx="12" cy="23" r="3"/>
<line class="st0" x1="12" y1="13" x2="12" y2="20"/>
<line class="st0" x1="20" y1="6" x2="25" y2="6"/>
<line class="st0" x1="20" y1="10" x2="22" y2="10"/>
<line class="st0" x1="20" y1="14" x2="25" y2="14"/>
<line class="st0" x1="20" y1="18" x2="22" y2="18"/>
</svg>
