<?xml version="1.0" encoding="utf-8"?>
<!-- Generator: Adobe Illustrator 23.0.3, SVG Export Plug-In . SVG Version: 6.00 Build 0)  -->
<svg version="1.1" id="Icons" xmlns="http://www.w3.org/2000/svg" xmlns:xlink="http://www.w3.org/1999/xlink" x="0px" y="0px"
	 viewBox="0 0 32 32" style="enable-background:new 0 0 32 32;" xml:space="preserve">
<g>
	<path d="M22,9.6c-1-0.4-2-0.9-3-1.4V17c1,0,2,0.1,3,0V9.6z"/>
	<path d="M27.7,10.6c-0.2-0.2-0.5-0.3-0.8-0.3c-1,0.1-2,0-2.9-0.2v6.5c1.1-0.3,2.2-0.7,3.5-1.4c0.3-0.2,0.5-0.5,0.5-0.9v-3
		C28,11.1,27.9,10.8,27.7,10.6z"/>
	<path d="M12,5.6c-0.7-0.1-1.3-0.1-2.1,0C9.4,5.7,9.1,6,9,6.5L6,8.9V3c0-0.6-0.4-1-1-1S4,2.4,4,3v26c0,0.6,0.4,1,1,1s1-0.4,1-1V15.1
		l3,2.4v0.1c0,0.4,0.2,0.7,0.5,0.9c0.2,0.1,0.3,0.1,0.5,0.1c0.2,0,0.3,0,0.5-0.1c0.5-0.3,1-0.5,1.5-0.7V5.6z M9,14.9l-3-2.4v-1
		l3-2.4V14.9z"/>
	<path d="M17,7.1c-0.9-0.4-1.9-0.8-3-1.1v11.2c1-0.2,2-0.3,3-0.2V7.1z"/>
</g>
</svg>
